<svg xmlns="http://www.w3.org/2000/svg" width="128" height="128" viewBox="0 0 128 128">
  <title>BEER BOTTLE</title>
  <g>
    <path d="M58.159,13.35l-1.12,29.264L48.814,53.073a12,12,0,0,0-2.567,7.418v57.2a4,4,0,0,0,4,4H77.753a4,4,0,0,0,4-4v-57.2a12,12,0,0,0-2.567-7.418L70.961,42.614,69.841,13.35Z" fill="#97da7b"/>
    <path d="M46.247,78.344h6.56a11.193,11.193,0,0,1,22.386,0h6.56V93.656h-6.56a11.193,11.193,0,0,1-22.386,0h-6.56Z" fill="#f07281"/>
    <path d="M58.975,6.307h10.05a2.5,2.5,0,0,1,2.5,2.5V13.35a0,0,0,0,1,0,0H56.475a0,0,0,0,1,0,0V8.807A2.5,2.5,0,0,1,58.975,6.307Z" fill="#f07281"/>
    <g>
      <path d="M70.722,36.369a1.747,1.747,0,0,0-1.681,1.815l.172,4.5a1.749,1.749,0,0,0,1.747,1.683l.068,0a1.749,1.749,0,0,0,1.682-1.815l-.172-4.5A1.757,1.757,0,0,0,70.722,36.369Z"/>
      <path d="M80.561,51.992l-2.487-3.164a1.75,1.75,0,1,0-2.751,2.163l2.487,3.164A10.294,10.294,0,0,1,80,60.491v16.1H76.826a12.945,12.945,0,0,0-25.652,0H48v-16.1a10.294,10.294,0,0,1,2.193-6.336L58.414,43.7a1.742,1.742,0,0,0,.373-1.014L59.843,15.1h8.314l.514,13.434a1.751,1.751,0,0,0,1.748,1.683h.068A1.749,1.749,0,0,0,72.168,28.4l-.51-13.314a1.745,1.745,0,0,0,1.617-1.736V8.807a4.255,4.255,0,0,0-4.25-4.25H58.975a4.255,4.255,0,0,0-4.25,4.25V13.35a1.745,1.745,0,0,0,1.617,1.736L55.311,41.979,47.439,51.992a13.807,13.807,0,0,0-2.942,8.5V100.9a1.75,1.75,0,0,0,3.5,0V95.406h3.177a12.945,12.945,0,0,0,25.652,0H80v22.287a2.252,2.252,0,0,1-2.25,2.25H50.247a2.252,2.252,0,0,1-2.25-2.25v-7.43a1.75,1.75,0,0,0-3.5,0v7.43a5.757,5.757,0,0,0,5.75,5.75H77.753a5.757,5.757,0,0,0,5.75-5.75v-57.2A13.807,13.807,0,0,0,80.561,51.992ZM58.225,8.807a.751.751,0,0,1,.75-.75h10.05a.751.751,0,0,1,.75.75V11.6H58.225Zm16.968,83.1a1.751,1.751,0,0,0-1.75,1.75,9.443,9.443,0,0,1-18.886,0,1.751,1.751,0,0,0-1.75-1.75H48V80.094h4.81a1.751,1.751,0,0,0,1.75-1.75,9.443,9.443,0,0,1,18.886,0,1.751,1.751,0,0,0,1.75,1.75H80V91.906Z"/>
    </g>
  </g>
</svg>
